<svg width="737" height="475" viewBox="0 0 737 475" fill="none" xmlns="http://www.w3.org/2000/svg">
<rect width="737" height="475" fill="#E5E5E5"/>
<g clip-path="url(#clip0)">
<rect width="737" height="475" fill="white"/>
<path d="M327.376 108.009C297.04 108.028 266.915 103.818 238.25 95.5526C199.822 84.4903 168.34 69.232 144.681 50.2012C99.9261 14.2026 63.234 8.77738 40.3387 10.5638C15.5548 12.4984 1.12867 23.0648 0.985918 23.1714L-7.62939e-06 22.2563C0.145623 22.1474 14.8692 11.3411 40.1051 9.34734C54.904 8.17893 70.3799 10.2147 86.1041 15.4001C105.713 21.8664 125.766 33.2777 145.707 49.317C169.21 68.2226 200.509 83.3877 238.733 94.3905C308.903 114.589 387.988 109.699 455.709 80.9728C478.131 71.4611 500.292 64.9686 521.576 61.6759C548.414 57.5227 573.867 58.4867 597.233 64.5391C648.579 77.8389 683.65 77.1336 704.03 74.2013C726.018 71.037 735.995 64.7042 736.093 64.6406L737 65.6109C736.587 65.8783 726.63 72.1964 704.28 75.4126C683.74 78.3689 648.418 79.085 596.795 65.7127C544.525 52.1749 491.585 67.1338 456.38 82.0677C422.907 96.3417 386.358 104.926 348.861 107.321C341.673 107.779 334.512 108.008 327.376 108.009Z" fill="#3F3D56"/>
<path d="M324.395 123.263C332.659 123.263 339.358 117.685 339.358 110.805C339.358 103.925 332.659 98.3471 324.395 98.3471C316.131 98.3471 309.432 103.925 309.432 110.805C309.432 117.685 316.131 123.263 324.395 123.263Z" fill="#F9A826"/>
<path d="M556.211 73.4748C564.475 73.4748 571.174 67.8972 571.174 61.0168C571.174 54.1365 564.475 48.5589 556.211 48.5589C547.948 48.5589 541.248 54.1365 541.248 61.0168C541.248 67.8972 547.948 73.4748 556.211 73.4748Z" fill="#F9A826"/>
<path d="M74.1223 24.9159C82.3861 24.9159 89.0853 19.3383 89.0853 12.4579C89.0853 5.57761 82.3861 0 74.1223 0C65.8585 0 59.1593 5.57761 59.1593 12.4579C59.1593 19.3383 65.8585 24.9159 74.1223 24.9159Z" fill="#F9A826"/>
<path d="M431.698 297.797V418.165H454.429V308.395H545.356V418.165H568.087V177.428H545.356C537.823 177.428 526.261 210.091 526.261 242.911C526.261 267.65 529.731 288.852 534.666 297.797H431.698ZM545.356 297.797H545.135C545.209 297.662 545.282 297.52 545.356 297.38V297.797Z" fill="#3F3D56"/>
<path d="M515.935 117.85H515.935C497.276 117.85 482.15 131.826 482.15 149.066V170.971H490.242L494.926 162.855L493.755 170.971H545.763L550.022 163.593L548.957 170.971H554.813V153.772C554.813 133.932 537.407 117.85 515.935 117.85Z" fill="#2F2E41"/>
<path d="M477.224 260.96L456.48 268.301L384.396 317.091C381.745 319.803 380.121 323.109 379.728 326.59C379.21 332.203 357.429 361.563 365.208 365.449C372.987 369.335 400.991 380.993 402.546 373.221C404.102 365.449 412.4 332.203 412.4 332.203L481.891 280.39L477.224 260.96Z" fill="#2F2E41"/>
<path d="M395.805 366.744L386.989 388.333C386.989 388.333 396.323 396.536 391.656 403.445V427.192H384.396L382.321 414.671C382.321 414.671 374.052 427.034 369.875 427.192C361.119 427.524 343.78 430.117 343.262 426.231C342.743 422.345 356.392 418.557 356.392 418.557L370.912 385.31L377.135 365.017L395.805 366.744Z" fill="#2F2E41"/>
<path d="M531.157 255.347C531.157 255.347 535.824 293.343 522.341 300.252C508.858 307.16 449.22 329.18 449.22 329.18C449.22 329.18 474.631 349.042 469.445 353.791C464.259 358.541 440.922 371.494 437.811 368.903C434.699 366.312 399.953 335.225 404.102 325.294C408.251 315.364 465.815 282.981 465.815 282.981L472.556 262.688L474.631 246.28L496.411 234.622L531.157 255.347Z" fill="#2F2E41"/>
<path d="M507.398 166.884C519.338 166.884 529.017 158.825 529.017 148.884C529.017 138.943 519.338 130.884 507.398 130.884C495.458 130.884 485.779 138.943 485.779 148.884C485.779 158.825 495.458 166.884 507.398 166.884Z" fill="#FFB9B9"/>
<path d="M524.156 156.256C524.156 156.256 523.119 172.663 539.195 177.845C555.272 183.026 499.264 216.704 499.264 216.704V179.14C499.264 179.14 506.524 172.663 499.264 162.733L524.156 156.256Z" fill="#FFB9B9"/>
<path d="M558.643 233.327L554.494 250.166L542.048 308.024C542.048 308.024 552.419 332.634 538.417 332.203C524.415 331.771 531.157 305.433 531.157 305.433L538.417 257.506V238.94L558.643 233.327Z" fill="#FFB9B9"/>
<path d="M469.445 225.124L464.777 240.236L443.515 282.981C443.515 282.981 428.995 303.274 440.922 302.842C452.85 302.41 452.85 282.981 452.85 282.981L477.224 248.439V229.009L469.445 225.124Z" fill="#FFB9B9"/>
<path d="M465.815 351.201L482.928 364.585C482.928 364.585 494.856 362.427 499.523 374.084C504.19 385.742 507.302 393.082 507.302 393.082L501.079 396.105L493.3 387.038C493.3 387.038 488.633 403.445 483.965 404.74C479.298 406.035 455.961 414.671 458.036 404.74L469.445 390.923C469.445 390.923 471 375.38 466.333 374.084C461.666 372.789 449.22 359.836 449.22 359.836L465.815 351.201Z" fill="#2F2E41"/>
<path d="M531.979 268.732C531.979 268.732 483.232 254.052 480.12 255.347C477.804 256.199 475.337 256.732 472.816 256.926L472.86 251.03C472.86 251.03 488.936 246.28 497.752 249.303C506.568 252.325 533.535 265.71 533.535 265.71L531.979 268.732Z" fill="#3F3D56"/>
<path d="M502.375 208.069C502.375 208.069 516.377 194.684 520.526 186.48C523.151 181.507 527.969 177.562 533.985 175.461C533.985 175.461 565.125 181.299 564.606 191.661C564.088 202.024 544.9 217.999 544.9 217.999C544.9 217.999 547.493 275.425 533.491 274.561C530.471 271.56 528.339 268.011 527.268 264.199C525.712 258.154 477.483 251.677 477.483 251.677C477.483 251.677 473.334 257.722 472.815 255.132C472.297 252.541 476.964 189.071 476.964 189.071L501.694 175.461L502.375 208.069Z" fill="#6DFF39"/>
<path d="M560.612 187.49L560.959 187.653C562.067 188.17 562.99 188.925 563.632 189.838C564.274 190.751 564.612 191.79 564.612 192.848L564.607 224.891C564.611 225.762 564.842 226.622 565.285 227.411C565.728 228.2 566.372 228.899 567.172 229.461C569.17 230.875 571.022 232.914 567.199 233.975C560.976 235.702 536.602 244.337 536.084 241.315C535.565 238.293 534.528 234.838 536.084 234.838C537.302 234.838 544.559 203.877 550.39 190.639C550.746 189.829 551.309 189.092 552.041 188.481C552.772 187.87 553.655 187.398 554.627 187.098C555.599 186.799 556.638 186.679 557.671 186.747C558.704 186.814 559.708 187.068 560.612 187.49Z" fill="#6DFF39"/>
<path d="M483.965 187.559L476.705 189.286L468.408 219.079C468.408 219.079 458.554 220.806 461.666 223.828C464.777 226.851 477.742 234.622 477.742 234.622L483.965 187.559Z" fill="#6DFF39"/>
<path d="M525.54 126.449C523.914 124.631 521.807 123.15 519.382 122.12C516.958 121.09 514.281 120.538 511.559 120.509H510.896C498.107 120.509 487.74 130.144 487.74 142.029V142.029H492.025L492.717 137.644L493.732 142.029H519.147L521.276 138.319L520.744 142.029H525.744C528.077 151.676 524.725 161.323 515.687 170.971H524.204L528.463 163.55L527.398 170.971H543.634L546.828 153.903C546.828 141.12 537.908 130.281 525.54 126.449Z" fill="#2F2E41"/>
<path d="M91.202 325.608C96.6577 315.718 100.494 292.276 100.494 264.923C100.494 228.634 87.7109 192.52 79.3823 192.52H54.2488V458.696H79.3823V337.326H179.916V458.696H205.05V325.608H91.202ZM79.3823 325.147C79.4636 325.302 79.5447 325.459 79.6267 325.608H79.3823V325.147Z" fill="#3F3D56"/>
<path d="M195.961 277.049C195.961 277.049 226.23 287.498 216.632 293.645C207.035 299.792 187.102 286.269 187.84 284.425C188.578 282.581 184.887 278.278 184.887 278.278L195.961 277.049Z" fill="#9F616A"/>
<path d="M169.383 194.683L178.981 202.059L181.196 223.573L188.578 246.315C188.578 246.315 201.129 267.829 198.914 272.131C196.699 276.434 201.129 277.664 201.129 277.664L184.149 283.196C184.149 283.196 165.692 265.985 165.692 262.297C165.692 258.609 169.383 194.683 169.383 194.683Z" fill="#575A88"/>
<path opacity="0.1" d="M169.383 194.683L178.981 202.059L181.196 223.573L188.578 246.315C188.578 246.315 201.129 267.829 198.914 272.131C196.699 276.434 201.129 277.664 201.129 277.664L184.149 283.196C184.149 283.196 165.692 265.985 165.692 262.297C165.692 258.609 169.383 194.683 169.383 194.683Z" fill="black"/>
<path d="M260.19 415.964C260.19 415.964 256.499 430.102 255.761 431.331C255.022 432.56 269.788 436.863 269.788 436.863L287.506 426.413C287.506 426.413 280.123 412.891 280.123 410.432L260.19 415.964Z" fill="#575A88"/>
<path d="M163.477 278.278L168.645 283.196C168.645 283.196 275.694 294.26 277.909 311.47C280.123 328.681 295.627 409.817 286.768 412.276C277.909 414.735 255.022 423.955 255.022 419.038C255.022 414.12 240.257 346.507 243.21 334.213C243.21 334.213 115.49 320.69 112.537 305.324C109.584 289.957 115.49 283.196 115.49 283.196L163.477 278.278Z" fill="#2F2E41"/>
<path opacity="0.1" d="M163.477 278.278L168.645 283.196C168.645 283.196 275.694 294.26 277.909 311.47C280.123 328.681 295.627 409.817 286.768 412.276C277.909 414.735 255.022 423.955 255.022 419.038C255.022 414.12 240.257 346.507 243.21 334.213C243.21 334.213 115.49 320.69 112.537 305.324C109.584 289.957 115.49 283.196 115.49 283.196L163.477 278.278Z" fill="black"/>
<path d="M258.714 430.102C258.714 430.102 255.761 424.569 254.284 426.414C252.808 428.258 247.64 449.771 252.808 449.771C257.975 449.771 305.225 459.606 311.869 458.376C318.513 457.147 331.064 458.991 329.587 452.844C328.111 446.698 320.728 446.083 320.728 446.083C320.728 446.083 293.412 432.56 291.936 425.799C290.459 419.037 282.338 422.725 282.338 422.725V427.028C282.338 427.028 266.835 436.863 258.714 430.102Z" fill="#2F2E41"/>
<path d="M118.443 147.968C118.443 147.968 123.611 168.867 112.537 170.711C101.463 172.555 126.564 184.849 126.564 184.849L142.806 192.225L154.618 182.39C154.618 182.39 143.913 164.257 152.034 150.734C160.155 137.212 118.443 147.968 118.443 147.968Z" fill="#9F616A"/>
<path d="M154.618 182.39L142.806 192.225L126.564 184.849C126.564 184.849 101.463 172.555 112.537 170.711C119.661 169.525 120.06 160.452 119.447 154.134C119.247 152.065 118.912 150.007 118.443 147.968C118.443 147.968 160.155 137.212 152.034 150.734C150.8 152.823 149.944 155.051 149.494 157.348C147.006 169.5 154.618 182.39 154.618 182.39Z" fill="#FFB9B9"/>
<path d="M195.961 433.789V447.927H224.015L226.23 442.395L223.277 427.643L195.961 433.789Z" fill="#575A88"/>
<path d="M80.0528 290.572C80.0528 290.572 80.0528 326.837 97.7712 328.066C115.49 329.296 178.981 336.057 178.981 336.057C178.981 336.057 182.672 396.295 189.316 415.964C195.961 435.633 190.055 436.863 195.961 438.092C201.867 439.321 226.968 435.019 226.23 430.716C225.492 426.413 222.539 317.617 222.539 317.617C222.539 317.617 229.183 294.26 140.591 283.196L80.0528 290.572Z" fill="#2F2E41"/>
<path d="M198.176 443.624C198.176 443.624 193.746 435.633 193.008 438.092C192.27 440.551 183.41 462.064 192.27 463.908C201.129 465.752 229.183 475.587 247.64 474.972C266.096 474.358 268.311 473.743 268.311 473.743C268.311 473.743 273.479 467.596 266.835 463.908C260.19 460.22 232.874 438.707 231.398 436.248C229.921 433.789 218.847 431.945 218.847 436.248C218.847 440.551 203.344 449.156 198.176 443.624Z" fill="#2F2E41"/>
<path opacity="0.1" d="M152.034 150.734C150.8 152.823 149.944 155.051 149.494 157.348C145.818 159.198 143.359 158.725 138.745 158.725C131.901 158.725 129.14 151.441 124.718 147.661C124.371 144.151 118.443 147.968 118.443 147.968C118.443 147.968 160.155 137.212 152.034 150.734Z" fill="black"/>
<path d="M136.899 158.418C150.355 158.418 161.262 149.336 161.262 138.134C161.262 126.931 150.355 117.85 136.899 117.85C123.444 117.85 112.537 126.931 112.537 138.134C112.537 149.336 123.444 158.418 136.899 158.418Z" fill="#FFB9B9"/>
<path d="M178.981 202.059C178.981 202.059 175.289 224.187 173.075 232.178C170.86 240.169 167.907 277.049 166.43 281.966C164.954 286.884 156.094 288.113 138.376 286.269C137.264 286.152 136.145 286.083 135.024 286.06C124.113 285.771 111.629 289.17 100.075 291.838C93.4302 293.375 87.0885 294.665 81.5293 294.874C73.1131 295.194 70.6473 287.425 70.9352 279.016C71.2084 271.191 73.8735 262.801 76.3615 259.838C80.8428 254.503 76.4353 206.602 78.0891 190.805V190.799C78.34 188.389 78.7313 186.729 79.3145 186.078C83.7441 181.161 112.537 168.867 115.763 169.365C118.982 169.863 146.497 184.234 146.497 184.234C153.141 184.234 152.927 178.235 152.927 178.235C152.927 178.235 157.571 185.463 166.43 187.307C175.289 189.151 178.981 202.059 178.981 202.059Z" fill="#F9A826" fill-opacity="0.94"/>
<path d="M129.63 281.747C129.63 281.747 177.186 283.007 168.855 287.711C160.524 292.416 123.611 296.718 122.872 290.572C122.134 284.425 129.63 281.747 129.63 281.747Z" fill="#9F616A"/>
<path opacity="0.1" d="M135.024 286.06C135.179 288.42 127.553 293.737 125.087 297.333C123.721 299.325 113.149 296.7 100.075 291.838C90.0413 288.088 80.3081 283.806 70.9352 279.016C71.2083 271.191 73.8735 262.801 76.3614 259.838C80.8428 254.503 76.4353 206.602 78.089 190.805V190.799C78.4833 190.632 78.8931 190.492 79.3145 190.381H88.1737C118.443 202.059 83.7441 252.462 83.7441 252.462C83.7441 252.462 129.517 283.81 133.946 285.04C134.237 285.085 134.501 285.211 134.696 285.396C134.891 285.58 135.007 285.814 135.024 286.06Z" fill="black"/>
<path d="M88.1738 186.693H79.3146C79.3146 186.693 71.1936 188.537 64.5492 200.83C57.9048 213.123 33.5419 251.233 54.9517 265.985C76.3615 280.737 122.134 297.948 125.087 293.645C128.04 289.342 138.376 282.581 133.946 281.352C129.517 280.122 83.7442 248.774 83.7442 248.774C83.7442 248.774 118.443 198.371 88.1738 186.693Z" fill="#575A88"/>
<path d="M133.151 128.695C133.151 128.695 134.221 116.372 147.41 121.397C160.6 126.421 159.739 112.572 155.753 110.125C151.768 107.678 151.894 107.072 137.316 108.709C122.738 110.347 94.436 113.121 103.587 137.525C112.739 161.93 121.027 155.652 121.027 155.652C121.027 155.652 113.753 133.691 121.123 137.875L128.493 142.059L132.383 141.373L133.151 128.695Z" fill="#2F2E41"/>
<path d="M677.387 306.134C677.387 295.039 578.364 286.045 456.212 286.045C334.06 286.045 235.037 295.039 235.037 306.134C235.037 310.434 249.92 314.418 275.25 317.685V455.125H287.315V319.102C327.886 323.457 388.488 326.222 456.212 326.222C524.495 326.222 585.543 323.411 626.115 318.994V455.125H638.179V317.553C662.895 314.311 677.387 310.376 677.387 306.134Z" fill="#D87144"/>
<path d="M483.921 306.553C508.793 306.553 528.955 302.425 528.955 297.333C528.955 292.241 508.793 288.113 483.921 288.113C459.049 288.113 438.886 292.241 438.886 297.333C438.886 302.425 459.049 306.553 483.921 306.553Z" fill="#F2F2F2"/>
<path d="M483.921 304.89C504.308 304.89 520.834 301.507 520.834 297.333C520.834 293.159 504.308 289.776 483.921 289.776C463.534 289.776 447.007 293.159 447.007 297.333C447.007 301.507 463.534 304.89 483.921 304.89Z" fill="#D0CDE1"/>
<path d="M316.334 313.929C341.206 313.929 361.368 309.801 361.368 304.709C361.368 299.617 341.206 295.489 316.334 295.489C291.462 295.489 271.3 299.617 271.3 304.709C271.3 309.801 291.462 313.929 316.334 313.929Z" fill="#F2F2F2"/>
<path d="M316.334 312.267C336.721 312.267 353.247 308.883 353.247 304.709C353.247 300.535 336.721 297.152 316.334 297.152C295.947 297.152 279.421 300.535 279.421 304.709C279.421 308.883 295.947 312.267 316.334 312.267Z" fill="#D0CDE1"/>
<path d="M482.873 296.682C494.73 296.682 504.342 295.418 504.342 293.86C504.342 292.301 494.73 291.037 482.873 291.037C471.016 291.037 461.404 292.301 461.404 293.86C461.404 295.418 471.016 296.682 482.873 296.682Z" fill="#9F616A"/>
<path d="M471.432 292.801C475.176 292.801 478.212 291.432 478.212 289.744C478.212 288.055 475.176 286.686 471.432 286.686C467.688 286.686 464.652 288.055 464.652 289.744C464.652 291.432 467.688 292.801 471.432 292.801Z" fill="#F9A826"/>
<path d="M468.89 292.801C472.634 292.801 475.669 291.432 475.669 289.744C475.669 288.055 472.634 286.686 468.89 286.686C465.145 286.686 462.11 288.055 462.11 289.744C462.11 291.432 465.145 292.801 468.89 292.801Z" fill="#F9A826"/>
<path d="M498.551 293.507C502.295 293.507 505.331 292.138 505.331 290.449C505.331 288.761 502.295 287.392 498.551 287.392C494.807 287.392 491.771 288.761 491.771 290.449C491.771 292.138 494.807 293.507 498.551 293.507Z" fill="#F9A826"/>
<path d="M483.014 292.801C486.758 292.801 489.794 291.432 489.794 289.744C489.794 288.055 486.758 286.686 483.014 286.686C479.27 286.686 476.234 288.055 476.234 289.744C476.234 291.432 479.27 292.801 483.014 292.801Z" fill="#F9A826"/>
<path d="M494.596 292.801C498.34 292.801 501.376 291.432 501.376 289.744C501.376 288.055 498.34 286.686 494.596 286.686C490.852 286.686 487.816 288.055 487.816 289.744C487.816 291.432 490.852 292.801 494.596 292.801Z" fill="#F9A826"/>
<path d="M503.353 287.862C491.1 291.324 477.352 291.324 462.11 287.862V287.386C462.107 283.787 463.767 280.324 466.744 277.715C469.722 275.106 473.79 273.55 478.108 273.369C481.741 273.216 485.382 273.22 489.015 273.38C492.899 273.569 496.55 274.988 499.216 277.347C501.882 279.706 503.363 282.826 503.353 286.065V287.862Z" fill="#3F3D56"/>
<path d="M497.338 300.823C488.282 301.584 479.158 301.584 470.103 300.823C467.955 300.648 465.962 299.814 464.511 298.483C463.06 297.153 462.255 295.421 462.251 293.624H505.189C505.186 295.421 504.381 297.153 502.93 298.483C501.479 299.814 499.486 300.648 497.338 300.823Z" fill="#3F3D56"/>
<path d="M477.082 277.749C476.097 278.09 475.041 278.266 473.974 278.266C472.908 278.266 471.852 278.09 470.867 277.749C471.852 277.407 472.908 277.231 473.974 277.231C475.041 277.231 476.097 277.407 477.082 277.749Z" fill="#D0CDE1"/>
<path d="M483.297 279.866C482.312 280.207 481.256 280.383 480.189 280.383C479.123 280.383 478.066 280.207 477.082 279.866C478.066 279.524 479.123 279.348 480.189 279.348C481.256 279.348 482.312 279.524 483.297 279.866Z" fill="#D0CDE1"/>
<path d="M483.861 276.102C482.877 276.444 481.821 276.62 480.754 276.62C479.687 276.62 478.631 276.444 477.647 276.102C478.631 275.761 479.687 275.585 480.754 275.585C481.821 275.585 482.877 275.761 483.861 276.102Z" fill="#D0CDE1"/>
<path d="M495.444 276.102C494.459 276.444 493.403 276.62 492.336 276.62C491.27 276.62 490.213 276.444 489.229 276.102C490.213 275.761 491.27 275.585 492.336 275.585C493.403 275.585 494.459 275.761 495.444 276.102Z" fill="#D0CDE1"/>
<path d="M492.336 278.219C491.352 278.561 490.295 278.737 489.229 278.737C488.162 278.737 487.106 278.561 486.121 278.219C487.106 277.878 488.162 277.702 489.229 277.702C490.295 277.702 491.352 277.878 492.336 278.219Z" fill="#D0CDE1"/>
<path d="M316.024 304.058C327.881 304.058 337.493 302.794 337.493 301.236C337.493 299.677 327.881 298.413 316.024 298.413C304.167 298.413 294.555 299.677 294.555 301.236C294.555 302.794 304.167 304.058 316.024 304.058Z" fill="#9F616A"/>
<path d="M304.583 300.177C308.328 300.177 311.363 298.808 311.363 297.12C311.363 295.431 308.328 294.062 304.583 294.062C300.839 294.062 297.804 295.431 297.804 297.12C297.804 298.808 300.839 300.177 304.583 300.177Z" fill="#F9A826"/>
<path d="M302.041 300.177C305.785 300.177 308.821 298.808 308.821 297.12C308.821 295.431 305.785 294.062 302.041 294.062C298.297 294.062 295.261 295.431 295.261 297.12C295.261 298.808 298.297 300.177 302.041 300.177Z" fill="#F9A826"/>
<path d="M331.702 300.883C335.447 300.883 338.482 299.514 338.482 297.825C338.482 296.137 335.447 294.768 331.702 294.768C327.958 294.768 324.923 296.137 324.923 297.825C324.923 299.514 327.958 300.883 331.702 300.883Z" fill="#F9A826"/>
<path d="M316.165 300.177C319.91 300.177 322.945 298.808 322.945 297.12C322.945 295.431 319.91 294.062 316.165 294.062C312.421 294.062 309.386 295.431 309.386 297.12C309.386 298.808 312.421 300.177 316.165 300.177Z" fill="#F9A826"/>
<path d="M327.747 300.177C331.492 300.177 334.527 298.808 334.527 297.12C334.527 295.431 331.492 294.062 327.747 294.062C324.003 294.062 320.968 295.431 320.968 297.12C320.968 298.808 324.003 300.177 327.747 300.177Z" fill="#F9A826"/>
<path d="M336.505 295.238C324.252 298.7 310.504 298.7 295.261 295.238V294.762C295.259 291.163 296.918 287.7 299.896 285.091C302.873 282.482 306.942 280.926 311.259 280.745C314.893 280.592 318.533 280.596 322.166 280.756C326.051 280.945 329.701 282.364 332.367 284.723C335.034 287.082 336.514 290.202 336.505 293.441V295.238Z" fill="#3F3D56"/>
<path d="M330.489 308.199C321.434 308.96 312.309 308.96 303.254 308.199C301.106 308.024 299.113 307.19 297.662 305.859C296.211 304.529 295.406 302.797 295.402 301H338.341C338.337 302.797 337.532 304.529 336.081 305.859C334.63 307.19 332.637 308.024 330.489 308.199Z" fill="#3F3D56"/>
<path d="M310.233 285.125C309.249 285.466 308.192 285.642 307.126 285.642C306.059 285.642 305.003 285.466 304.018 285.125C305.003 284.783 306.059 284.607 307.126 284.607C308.192 284.607 309.249 284.783 310.233 285.125Z" fill="#D0CDE1"/>
<path d="M316.448 287.242C315.463 287.583 314.407 287.759 313.341 287.759C312.274 287.759 311.218 287.583 310.233 287.242C311.218 286.9 312.274 286.724 313.341 286.724C314.407 286.724 315.463 286.9 316.448 287.242Z" fill="#D0CDE1"/>
<path d="M317.013 283.478C316.028 283.82 314.972 283.996 313.906 283.996C312.839 283.996 311.783 283.82 310.798 283.478C311.783 283.137 312.839 282.961 313.906 282.961C314.972 282.961 316.028 283.137 317.013 283.478Z" fill="#D0CDE1"/>
<path d="M328.595 283.478C327.61 283.82 326.554 283.996 325.488 283.996C324.421 283.996 323.365 283.82 322.38 283.478C323.365 283.137 324.421 282.961 325.488 282.961C326.554 282.961 327.61 283.137 328.595 283.478Z" fill="#D0CDE1"/>
<path d="M325.488 285.595C324.503 285.937 323.447 286.113 322.38 286.113C321.313 286.113 320.257 285.937 319.273 285.595C320.257 285.254 321.313 285.078 322.38 285.078C323.447 285.078 324.503 285.254 325.488 285.595Z" fill="#D0CDE1"/>
<path d="M522.663 294.835L522.767 296.739L522.899 299.208C522.899 299.208 509.277 299.849 506.533 302.263C506.469 302.315 506.41 302.371 506.357 302.431L500.901 301.436L500.887 299.199C500.887 299.199 500.963 299.164 501.109 299.098C501.143 299.084 501.184 299.065 501.226 299.047C507.903 296.324 515.229 294.885 522.663 294.835Z" fill="#F9A826"/>
<path opacity="0.1" d="M522.663 294.835L522.767 296.739C516.726 296.894 505.294 299.892 505.294 299.892L501.109 299.098C507.815 296.34 515.184 294.883 522.663 294.835Z" fill="black"/>
<path opacity="0.1" d="M501.226 299.047L505.294 299.892L506.533 302.263C506.469 302.315 506.41 302.371 506.357 302.431L500.901 301.436L500.887 299.199C500.887 299.199 500.963 299.164 501.109 299.098C501.143 299.084 501.184 299.065 501.226 299.047Z" fill="white"/>
<path d="M358.029 302.826L358.133 304.729L358.265 307.199C358.265 307.199 344.643 307.84 341.899 310.254C341.835 310.306 341.777 310.362 341.724 310.422L336.267 309.427L336.254 307.189C336.254 307.189 336.329 307.154 336.475 307.089C336.509 307.074 336.551 307.056 336.592 307.037C343.269 304.315 350.595 302.876 358.029 302.826Z" fill="#F9A826"/>
<path opacity="0.1" d="M358.029 302.826L358.133 304.729C352.092 304.885 340.66 307.883 340.66 307.883L336.475 307.089C343.181 304.331 350.55 302.873 358.029 302.826Z" fill="black"/>
<path opacity="0.1" d="M336.592 307.037L340.66 307.883L341.899 310.254C341.835 310.306 341.777 310.362 341.724 310.422L336.267 309.427L336.254 307.189C336.254 307.189 336.329 307.154 336.475 307.089C336.509 307.074 336.551 307.056 336.592 307.037Z" fill="white"/>
<path d="M604.706 237.806C603.543 236.839 602.181 236.055 600.684 235.492V211.608C600.684 211.328 600.55 211.06 600.312 210.862C600.074 210.664 599.752 210.552 599.416 210.552H592.314C591.978 210.552 591.655 210.664 591.417 210.862C591.179 211.06 591.046 211.328 591.046 211.608V235.034C588.479 235.743 586.245 237.107 584.661 238.932C583.078 240.758 582.225 242.953 582.225 245.204V296.438C582.225 297.055 582.37 297.665 582.654 298.235C582.937 298.804 583.353 299.322 583.876 299.758C584.4 300.194 585.021 300.54 585.706 300.776C586.39 301.012 587.123 301.133 587.864 301.133H603.075C604.564 301.133 605.992 300.641 607.044 299.764C608.097 298.888 608.688 297.699 608.688 296.46V245.808C608.69 244.322 608.34 242.849 607.656 241.476C606.973 240.103 605.97 238.855 604.706 237.806Z" fill="#3F3D56"/>
<path d="M608.688 252.715H582.225V281.82H608.688V252.715Z" fill="#F9A826"/>
<path d="M601.255 212.185H600.684V211.608C600.684 211.328 600.55 211.06 600.312 210.862C600.074 210.664 599.752 210.552 599.415 210.552H592.314C591.978 210.552 591.655 210.664 591.417 210.862C591.179 211.06 591.046 211.328 591.046 211.608V212.185H590.474V214.633H591.046V227.145H600.684V214.633H601.255V212.185Z" fill="#F9A826"/>
<path d="M392.814 258.536C392.114 257.291 391.561 256.411 391.367 256.108C379.489 258.549 371.563 256.486 370.313 256.122C369.702 257.083 365.886 263.225 364.344 269.115C362.951 274.427 363.76 277.988 366.748 279.7L366.836 279.752L366.856 279.763C370.154 281.572 373.3 283.175 376.207 284.526C376.598 284.707 376.967 284.876 377.314 285.031L377.351 285.048L377.377 285.076C377.776 285.494 378.148 285.931 378.49 286.383C379.132 287.13 379.522 288.008 379.618 288.923V315.307L379.418 315.311C371.841 315.439 367.151 316.509 367.151 317.426C367.151 318.432 372.775 319.553 380.845 319.553C388.914 319.553 394.538 318.432 394.538 317.426C394.538 316.522 389.928 315.459 382.479 315.316L382.278 315.312L382.465 290.906C382.47 289.254 382.931 287.624 383.814 286.144C383.964 285.896 384.126 285.654 384.294 285.426C384.429 285.242 384.573 285.063 384.72 284.894L384.747 284.863L384.787 284.845C385.16 284.675 385.557 284.491 385.976 284.293L386.025 284.271C388.776 282.978 391.739 281.461 394.834 279.762C397.598 278.246 398.56 275.18 397.694 270.65C396.869 266.332 394.585 261.679 392.814 258.536Z" fill="#D0CDE1"/>
<path d="M393.524 279.209C390.279 280.99 387.6 282.326 385.551 283.288H385.549C382.56 283.118 379.558 283.189 376.585 283.498C374.485 282.522 371.651 281.122 368.165 279.209C368.132 279.191 368.099 279.173 368.066 279.153V279.151C364.869 277.32 364.79 273.442 365.83 269.476C368.476 269.231 372.695 269.338 378.364 271.024C385.077 273.021 392.104 271.892 396.176 270.865C396.845 274.364 396.437 277.611 393.524 279.209Z" fill="#F9A826"/>
<path d="M374.229 268.041C374.737 268.041 375.148 267.698 375.148 267.276C375.148 266.853 374.737 266.511 374.229 266.511C373.722 266.511 373.311 266.853 373.311 267.276C373.311 267.698 373.722 268.041 374.229 268.041Z" fill="#F9A826"/>
<path d="M371.657 275.078C372.164 275.078 372.575 274.736 372.575 274.314C372.575 273.891 372.164 273.549 371.657 273.549C371.149 273.549 370.738 273.891 370.738 274.314C370.738 274.736 371.149 275.078 371.657 275.078Z" fill="white"/>
<path d="M376.434 269.571C376.739 269.571 376.986 269.365 376.986 269.112C376.986 268.858 376.739 268.653 376.434 268.653C376.13 268.653 375.883 268.858 375.883 269.112C375.883 269.365 376.13 269.571 376.434 269.571Z" fill="#F9A826"/>
<path d="M378.639 278.291C378.944 278.291 379.191 278.086 379.191 277.832C379.191 277.579 378.944 277.373 378.639 277.373C378.335 277.373 378.088 277.579 378.088 277.832C378.088 278.086 378.335 278.291 378.639 278.291Z" fill="white"/>
<path d="M374.781 278.75C375.085 278.75 375.332 278.545 375.332 278.291C375.332 278.038 375.085 277.832 374.781 277.832C374.476 277.832 374.229 278.038 374.229 278.291C374.229 278.545 374.476 278.75 374.781 278.75Z" fill="white"/>
<path d="M385.99 263.451C386.294 263.451 386.541 263.245 386.541 262.992C386.541 262.738 386.294 262.533 385.99 262.533C385.685 262.533 385.439 262.738 385.439 262.992C385.439 263.245 385.685 263.451 385.99 263.451Z" fill="#F9A826"/>
<path d="M435.913 233.663C435.213 232.419 434.66 231.538 434.466 231.235C422.588 233.676 414.662 231.614 413.412 231.249C412.801 232.21 408.985 238.353 407.443 244.242C406.05 249.554 406.859 253.115 409.847 254.827L409.935 254.879L409.955 254.89C413.253 256.699 416.399 258.302 419.306 259.653C419.697 259.834 420.066 260.003 420.413 260.159L420.45 260.175L420.476 260.203C420.875 260.621 421.247 261.058 421.589 261.51C422.231 262.257 422.621 263.135 422.717 264.05V290.434L422.517 290.438C414.94 290.566 410.25 291.636 410.25 292.553C410.25 293.559 415.874 294.68 423.944 294.68C432.013 294.68 437.637 293.559 437.637 292.553C437.637 291.65 433.027 290.586 425.578 290.443L425.377 290.439L425.564 266.033C425.569 264.381 426.03 262.752 426.913 261.271C427.063 261.023 427.225 260.781 427.393 260.553C427.528 260.369 427.672 260.19 427.819 260.021L427.846 259.99L427.886 259.972C428.259 259.802 428.656 259.618 429.075 259.42L429.124 259.398C431.875 258.105 434.838 256.588 437.933 254.889C440.697 253.373 441.659 250.307 440.793 245.777C439.968 241.459 437.684 236.806 435.913 233.663Z" fill="#D0CDE1"/>
<path d="M436.623 254.336C433.378 256.117 430.699 257.453 428.65 258.415H428.648C425.659 258.245 422.657 258.316 419.684 258.625C417.584 257.649 414.75 256.249 411.264 254.336C411.231 254.318 411.198 254.3 411.165 254.28V254.278C407.968 252.447 407.889 248.569 408.929 244.603C411.575 244.358 415.794 244.465 421.463 246.151C428.176 248.148 435.202 247.019 439.275 245.992C439.943 249.491 439.536 252.738 436.623 254.336Z" fill="#F9A826"/>
<path d="M417.328 243.168C417.836 243.168 418.247 242.825 418.247 242.403C418.247 241.98 417.836 241.638 417.328 241.638C416.821 241.638 416.409 241.98 416.409 242.403C416.409 242.825 416.821 243.168 417.328 243.168Z" fill="#F9A826"/>
<path d="M414.756 250.206C415.263 250.206 415.674 249.863 415.674 249.441C415.674 249.018 415.263 248.676 414.756 248.676C414.248 248.676 413.837 249.018 413.837 249.441C413.837 249.863 414.248 250.206 414.756 250.206Z" fill="white"/>
<path d="M419.533 244.698C419.838 244.698 420.085 244.492 420.085 244.239C420.085 243.985 419.838 243.78 419.533 243.78C419.229 243.78 418.982 243.985 418.982 244.239C418.982 244.492 419.229 244.698 419.533 244.698Z" fill="#F9A826"/>
<path d="M421.738 253.418C422.043 253.418 422.29 253.213 422.29 252.959C422.29 252.706 422.043 252.5 421.738 252.5C421.434 252.5 421.187 252.706 421.187 252.959C421.187 253.213 421.434 253.418 421.738 253.418Z" fill="white"/>
<path d="M417.879 253.878C418.184 253.878 418.431 253.672 418.431 253.418C418.431 253.165 418.184 252.959 417.879 252.959C417.575 252.959 417.328 253.165 417.328 253.418C417.328 253.672 417.575 253.878 417.879 253.878Z" fill="white"/>
<path d="M429.089 238.578C429.393 238.578 429.64 238.372 429.64 238.119C429.64 237.865 429.393 237.66 429.089 237.66C428.784 237.66 428.537 237.865 428.537 238.119C428.537 238.372 428.784 238.578 429.089 238.578Z" fill="#F9A826"/>
</g>
<defs>
<clipPath id="clip0">
<rect width="737" height="475" fill="white"/>
</clipPath>
</defs>
</svg>
